<?xml version="1.0" encoding="UTF-8" standalone="no"?>
<!DOCTYPE svg PUBLIC "-//W3C//DTD SVG 1.1//EN" "http://www.w3.org/Graphics/SVG/1.1/DTD/svg11.dtd">
<svg width="100%" height="100%" viewBox="0 0 257 256" version="1.1" xmlns="http://www.w3.org/2000/svg" xmlns:xlink="http://www.w3.org/1999/xlink" xml:space="preserve" xmlns:serif="http://www.serif.com/" style="fill-rule:evenodd;clip-rule:evenodd;stroke-linejoin:round;stroke-miterlimit:2;">
    <g transform="matrix(1,0,0,1,0.0074414,-0.0205018)">
        <g transform="matrix(1.06915,0,0,1.05108,-8.69643,-6.51088)">
            <path d="M247.583,29.154L247.583,226.793C247.583,239.454 237.477,249.733 225.03,249.733L30.679,249.733C18.232,249.733 8.127,239.454 8.127,226.793L8.127,29.154C8.127,16.493 18.232,6.214 30.679,6.214L225.03,6.214C237.477,6.214 247.583,16.493 247.583,29.154Z" style="fill:rgb(15,23,42);"/>
        </g>
        <g transform="matrix(1,0,0,1,16.3748,2.37914)">
            <path d="M80.299,213.781C78.951,217.643 76.279,220.81 72.282,223.28C68.285,225.75 64.534,226.401 61.031,225.234C57.618,224.515 55.08,222.18 53.419,218.227C51.757,214.275 51.645,209.918 53.082,205.158C54.519,200.217 57.079,189.483 60.762,172.955L52.494,172.955C47.794,172.955 44.247,172.057 41.852,170.261C39.458,168.464 38.261,166.039 38.261,162.985C38.261,159.661 39.357,156.877 41.549,154.631C43.743,152.386 47.211,151.128 51.953,150.858C53.385,150.769 55.622,150.679 58.665,150.589C61.708,150.499 63.99,150.409 65.511,150.32L74.909,102.757C73.374,102.757 71.319,102.802 68.745,102.892C66.172,102.982 64.389,103.027 63.396,103.027C58.791,103.206 55.269,102.218 52.831,100.062C50.393,97.907 49.174,95.257 49.174,92.113C49.174,88.879 50.337,86.095 52.661,83.759C54.986,81.424 58.519,80.166 63.259,79.987C66.746,79.807 72.112,79.717 79.356,79.717C84.565,51.871 87.215,37.589 87.305,36.871C88.742,32.2 91.01,28.966 94.109,27.169C97.208,25.373 100.464,24.879 103.878,25.687C107.83,26.496 110.839,28.36 112.905,31.279C114.971,34.198 115.51,38.038 114.522,42.799L107.112,79.178L138.371,79.178L145.781,39.026C147.218,34.176 149.486,30.852 152.585,29.056C155.684,27.259 159.03,26.81 162.623,27.708C166.665,28.517 169.72,30.358 171.786,33.233C173.851,36.107 174.256,39.97 172.998,44.82C171.022,52.455 168.731,63.773 166.127,78.774L169.383,78.774C173.907,78.774 177.639,79.994 180.579,82.433C183.52,84.872 184.99,87.537 184.99,90.429C184.99,93.77 183.896,96.594 181.708,98.898C179.52,101.201 176.193,102.353 171.727,102.353L161.68,102.353L153.731,149.646L165.116,149.646C169.453,149.646 172.457,150.589 174.129,152.475C175.8,154.362 176.636,156.877 176.636,160.021C176.636,168.105 172.748,172.147 164.973,172.147L149.689,172.147C146.006,193.166 143.356,207.448 141.739,214.994C140.212,218.946 137.562,221.932 133.79,223.954C130.017,225.975 126.334,226.446 122.741,225.368C119.328,224.65 116.768,222.471 115.061,218.834C113.354,215.196 113.175,211.086 114.522,206.505C116.408,199.139 118.789,187.821 121.663,172.551L88.787,172.551C84.745,192.672 81.916,206.415 80.299,213.781ZM102.665,102.488L93.234,149.511L125.705,149.511C128.67,134.467 131.544,118.792 134.329,102.488L102.665,102.488Z" style="fill:rgb(248,250,252);fill-rule:nonzero;"/>
        </g>
    </g>
</svg>
